<svg xmlns="http://www.w3.org/2000/svg" viewBox="0 0 200 300" width="200" height="300">
  <rect x="5" y="5" width="190" height="290" rx="15" ry="15" fill="white" stroke="black" stroke-width="2"/>
  
  <text x="15" y="45" font-size="36" font-family="Arial, sans-serif" font-weight="bold" fill="#D40000">Q</text>
  
  <polygon points="170,18 182,32 170,46 158,32" fill="#D40000"/>
  
  <polygon points="100,100 145,160 100,220 55,160" fill="#D40000"/>
  
  <path d="M 70,95 C 70,50 100,80 100,80 C 100,80 130,50 130,95 Z" fill="#FFD700" stroke="#000000" stroke-width="2"/>
  <circle cx="70" cy="55" r="5" fill="#D40000"/>
  <circle cx="130" cy="55" r="5" fill="#D40000"/>
  <circle cx="100" cy="80" r="6" fill="#FFFFFF" stroke="#000000" stroke-width="1"/>
  
  <rect x="140" y="100" width="4" height="100" fill="#FFD700" stroke="#000000" stroke-width="1"/>
  <polygon points="142,85 150,95 142,105 134,95" fill="#D40000" stroke="#000000" stroke-width="1"/>
</svg>
