<svg xmlns="http://www.w3.org/2000/svg" viewBox="0 0 200 300" width="200" height="300">
  <rect x="5" y="5" width="190" height="290" rx="15" ry="15" fill="white" stroke="black" stroke-width="2"/>
  
  <text x="20" y="45" font-size="36" font-family="Arial, sans-serif" font-weight="bold" fill="#D40000">K</text>
  
  <polygon points="170,18 182,32 170,46 158,32" fill="#D40000"/>
  
  <polygon points="100,110 150,170 100,230 50,170" fill="#D40000"/>
  
  <polygon points="60,105 50,50 75,70 100,40 125,70 150,50 140,105" fill="#FFD700" stroke="#000000" stroke-width="2"/>
  <circle cx="50" cy="50" r="4" fill="#D40000"/>
  <circle cx="100" cy="40" r="5" fill="#D40000"/>
  <circle cx="150" cy="50" r="4" fill="#D40000"/>
  <polygon points="100,80 110,95 90,95" fill="#D40000"/>
  
  <rect x="35" y="60" width="8" height="150" fill="#333333"/>
  <path d="M 43,80 Q 70,70 70,100 Q 70,130 43,120 Z" fill="#999999" stroke="#000000" stroke-width="2"/>
</svg>
