<svg xmlns="http://www.w3.org/2000/svg" viewBox="0 0 200 300" width="200" height="300">
  <rect x="5" y="5" width="190" height="290" rx="15" ry="15" fill="white" stroke="black" stroke-width="2"/>
  
  <text x="20" y="45" font-size="36" font-family="Arial, sans-serif" font-weight="bold" fill="#000000">K</text>
  
  <g fill="#000000">
    <circle cx="176" cy="24" r="5.5"/>
    <circle cx="170.5" cy="31.5" r="5.5"/>
    <circle cx="181.5" cy="31.5" r="5.5"/>
    <path d="M 176,30 L 172,44 L 180,44 Z"/>
  </g>
  
  <g fill="#000000">
    <circle cx="100" cy="115" r="22"/>
    <circle cx="78" cy="145" r="22"/>
    <circle cx="122" cy="145" r="22"/>
    <path d="M 100,140 L 85,195 L 115,195 Z"/>
  </g>
  
  <polygon points="65,100 55,50 80,70 100,40 120,70 145,50 135,100" fill="#FFD700" stroke="#000000" stroke-width="2"/>
  <circle cx="55" cy="50" r="4" fill="#000000"/>
  <circle cx="100" cy="40" r="5" fill="#000000"/>
  <circle cx="145" cy="50" r="4" fill="#000000"/>
  
  <rect x="35" y="50" width="8" height="160" fill="#999999" stroke="#000000" stroke-width="1"/>
  <polygon points="39,30 31,50 47,50" fill="#999999" stroke="#000000" stroke-width="1"/>
  <rect x="25" y="100" width="28" height="8" fill="#FFD700" stroke="#000000" stroke-width="1"/>
</svg>
