<svg xmlns="http://www.w3.org/2000/svg" viewBox="0 0 200 300" width="200" height="300">
  <rect x="5" y="5" width="190" height="290" rx="15" ry="15" fill="white" stroke="black" stroke-width="2"/>
  
  <text x="20" y="45" font-size="36" font-family="Arial, sans-serif" font-weight="bold" fill="#000000">J</text>
  
  <g fill="#000000">
    <circle cx="176" cy="24" r="5.5"/>
    <circle cx="170.5" cy="31.5" r="5.5"/>
    <circle cx="181.5" cy="31.5" r="5.5"/>
    <path d="M 176,30 L 172,44 L 180,44 Z"/>
  </g>
  
  <g fill="#000000">
    <circle cx="100" cy="115" r="22"/>
    <circle cx="78" cy="145" r="22"/>
    <circle cx="122" cy="145" r="22"/>
    <path d="M 100,140 L 85,195 L 115,195 Z"/>
  </g>
  
  <polygon points="80,100 85,65 100,85 115,65 120,100" fill="#FFD700" stroke="#000000" stroke-width="2"/>
  <circle cx="85" cy="65" r="4" fill="#000000"/>
  <circle cx="115" cy="65" r="4" fill="#000000"/>
  
  <rect x="45" y="80" width="6" height="140" fill="#333333"/>
  <polygon points="40,80 56,80 48,50" fill="#999999" stroke="#000000" stroke-width="1"/>
</svg>
