<svg xmlns="http://www.w3.org/2000/svg" viewBox="0 0 200 300" width="200" height="300">
  <rect x="5" y="5" width="190" height="290" rx="15" ry="15" fill="white" stroke="black" stroke-width="2"/>
  
  <text x="20" y="45" font-size="36" font-family="Arial, sans-serif" font-weight="bold" fill="#D40000">5</text>
  
  <path d="M 176,28 A 6,6 0 0,0 164,28 C 164,36 176,44 176,46 C 176,44 188,36 188,28 A 6,6 0 0,0 176,28 Z" fill="#D40000"/>
  
  <path d="M 100,100 A 30,30 0 0,0 40,100 C 40,150 100,200 100,220 C 100,200 160,150 160,100 A 30,30 0 0,0 100,100 Z" fill="#D40000"/>
</svg>
