<svg xmlns="http://www.w3.org/2000/svg" viewBox="0 0 200 300" width="200" height="300">
  <rect x="5" y="5" width="190" height="290" rx="15" ry="15" fill="white" stroke="black" stroke-width="2"/>
  
  <text x="20" y="45" font-size="36" font-family="Arial, sans-serif" font-weight="bold" fill="#D40000">J</text>
  
  <path d="M 176,28 A 6,6 0 0,0 164,28 C 164,36 176,44 176,46 C 176,44 188,36 188,28 A 6,6 0 0,0 176,28 Z" fill="#D40000"/>
  
  <path d="M 100,110 A 30,30 0 0,0 40,110 C 40,160 100,210 100,230 C 100,210 160,160 160,110 A 30,30 0 0,0 100,110 Z" fill="#D40000"/>
  
  <polygon points="80,105 85,70 100,90 115,70 120,105" fill="#FFD700" stroke="#000000" stroke-width="2"/>
  <circle cx="85" cy="70" r="4" fill="#D40000"/>
  <circle cx="115" cy="70" r="4" fill="#D40000"/>
  
  <rect x="45" y="80" width="6" height="140" fill="#333333"/>
  <polygon points="40,80 56,80 48,50" fill="#999999" stroke="#000000" stroke-width="1"/>
</svg>
