<svg xmlns="http://www.w3.org/2000/svg" viewBox="0 0 200 300" width="200" height="300">
  <rect x="5" y="5" width="190" height="290" rx="15" ry="15" fill="white" stroke="black" stroke-width="2"/>
  
  <text x="15" y="45" font-size="36" font-family="Arial, sans-serif" font-weight="bold" fill="#D40000">Q</text>
  
  <path d="M 176,28 A 6,6 0 0,0 164,28 C 164,36 176,44 176,46 C 176,44 188,36 188,28 A 6,6 0 0,0 176,28 Z" fill="#D40000"/>
  
  <path d="M 100,110 A 30,30 0 0,0 40,110 C 40,160 100,210 100,230 C 100,210 160,160 160,110 A 30,30 0 0,0 100,110 Z" fill="#D40000"/>
  
  <path d="M 75,100 C 75,55 100,85 100,85 C 100,85 125,55 125,100 Z" fill="#FFD700" stroke="#000000" stroke-width="2"/>
  <circle cx="75" cy="60" r="5" fill="#D40000"/>
  <circle cx="125" cy="60" r="5" fill="#D40000"/>
  <circle cx="100" cy="85" r="6" fill="#FFFFFF" stroke="#000000" stroke-width="1"/>
  
  <rect x="140" y="100" width="4" height="100" fill="#FFD700" stroke="#000000" stroke-width="1"/>
  <path d="M 142,88 A 4,4 0 0,0 134,88 C 134,92 142,98 142,100 C 142,98 150,92 150,88 A 4,4 0 0,0 142,88 Z" fill="#D40000"/>
</svg>
