<?xml version="1.0" standalone="no"?>
<!DOCTYPE svg PUBLIC "-//W3C//DTD SVG 20010904//EN"
 "http://www.w3.org/TR/2001/REC-SVG-20010904/DTD/svg10.dtd">
<svg version="1.0" xmlns="http://www.w3.org/2000/svg"
 width="250.000000pt" height="350.000000pt" viewBox="0 0 250.000000 350.000000"
 preserveAspectRatio="xMidYMid meet">

<rect x="0" y="0" width="250" height="350" rx="10" ry="10" fill="#FFFFFF" stroke="none"/>

<g transform="translate(0.000000,350.000000) scale(0.100000,-0.100000)"
fill="#000000" stroke="none">
<path d="M115 3481 c-48 -22 -79 -54 -100 -103 -13 -33 -15 -215 -15 -1628 0
-1413 2 -1595 15 -1628 21 -49 52 -81 100 -103 38 -18 92 -19 1135 -19 1043 0
1097 1 1135 19 48 22 79 54 100 103 13 33 15 215 15 1628 0 1413 -2 1595 -15
1628 -21 49 -52 81 -100 103 -38 18 -92 19 -1135 19 -1043 0 -1097 -1 -1135
-19z m2281 -37 c15 -11 37 -33 48 -48 l21 -27 0 -1619 0 -1619 -21 -27 c-11
-15 -33 -37 -48 -48 -27 -21 -32 -21 -1146 -21 -1114 0 -1119 0 -1146 21 -15
11 -37 33 -48 48 -21 27 -21 29 -24 1619 -1 876 0 1606 3 1624 7 40 49 91 90
109 24 11 232 13 1137 11 1100 -2 1107 -2 1134 -23z"/>
<path d="M616 3249 c-21 -5 -51 -18 -66 -29 -28 -20 -65 -94 -55 -111 4 -5 27
-9 53 -9 43 0 48 3 62 33 14 29 19 32 60 32 37 0 47 -4 59 -26 25 -45 7 -77
-100 -178 -116 -109 -139 -143 -139 -200 l0 -41 180 0 180 0 0 45 0 44 -121 3
-122 3 49 45 c145 134 172 165 183 208 20 72 -9 137 -74 169 -32 16 -106 22
-149 12z"/>
<path d="M1744 3155 c-114 -113 -144 -155 -144 -207 0 -22 5 -48 10 -59 25
-46 114 -63 171 -33 l31 16 -7 -34 c-13 -59 -37 -108 -63 -128 l-25 -20 113 0
113 0 -27 26 c-14 15 -35 55 -46 91 -25 80 -25 80 -1 59 22 -20 87 -32 124
-22 39 9 77 54 77 92 0 57 -18 84 -128 198 l-107 111 -91 -90z"/>
<path d="M1203 2082 c-23 -33 -106 -120 -185 -193 -217 -203 -307 -297 -359
-377 -65 -100 -82 -154 -78 -255 4 -74 8 -88 38 -136 108 -168 383 -200 531
-61 18 17 33 30 35 30 1 0 -4 -35 -12 -77 -42 -229 -121 -381 -225 -434 -21
-11 -38 -20 -38 -22 0 -1 151 -2 335 -2 184 0 335 1 335 2 0 2 -17 11 -37 22
-105 54 -177 187 -223 410 -11 55 -20 102 -20 106 0 4 17 -9 38 -29 20 -20 62
-49 92 -64 48 -24 67 -27 150 -27 76 0 105 5 143 23 143 65 213 185 188 324
-25 145 -112 264 -362 494 -154 142 -248 241 -289 303 -15 22 -15 22 -57 -37z"/>
</g>
</svg>
