<?xml version="1.0" standalone="no"?>
<!DOCTYPE svg PUBLIC "-//W3C//DTD SVG 20010904//EN"
 "http://www.w3.org/TR/2001/REC-SVG-20010904/DTD/svg10.dtd">
<svg version="1.0" xmlns="http://www.w3.org/2000/svg"
 width="750.000000pt" height="1050.000000pt" viewBox="0 0 750.000000 1050.000000"
 preserveAspectRatio="xMidYMid meet">
<g transform="translate(0.000000,1050.000000) scale(0.100000,-0.100000)"
fill="#000000" stroke="none">
<path d="M320 10485 c0 -8 -16 -19 -38 -24 -109 -30 -213 -139 -271 -284 -8
-20 -11 -1352 -11 -4935 0 -4351 2 -4912 15 -4950 31 -87 108 -184 188 -237
14 -9 49 -25 78 -35 53 -20 108 -20 3461 -20 2480 0 3415 3 3435 11 85 34 124
59 179 113 54 55 75 88 112 178 6 16 16 28 22 28 7 0 10 1575 10 4910 0 4236
-2 4910 -14 4910 -8 0 -18 14 -21 32 -25 114 -139 228 -288 287 -15 6 -25 16
-22 21 4 7 -1146 10 -3414 10 -2994 0 -3421 -2 -3421 -15z m6820 -101 c65 -19
114 -50 161 -100 45 -50 62 -77 82 -138 16 -46 17 -405 17 -4906 0 -4644 -1
-4858 -18 -4905 -27 -75 -46 -106 -94 -151 -49 -47 -82 -66 -152 -88 -45 -14
-385 -16 -3397 -16 -2985 0 -3353 2 -3396 15 -68 22 -102 42 -151 89 -48 45
-67 76 -94 151 -17 47 -18 261 -18 4905 l0 4856 21 62 c15 44 36 79 71 118 55
59 85 79 163 106 47 16 272 17 3401 17 3029 1 3355 -1 3404 -15z"/>
<path d="M5962 9661 c-22 -32 -94 -108 -159 -167 -420 -389 -496 -493 -496
-684 0 -97 38 -166 128 -235 71 -55 117 -69 223 -69 108 -1 178 21 240 75 36
32 52 36 52 15 0 -41 -41 -206 -66 -264 -8 -18 -14 -37 -14 -42 0 -16 -62
-113 -94 -148 -17 -19 -43 -40 -58 -48 -16 -8 -28 -19 -28 -24 0 -13 647 -14
655 -1 3 5 -3 12 -12 15 -46 15 -163 158 -163 199 0 7 -4 17 -8 22 -25 29 -90
291 -75 306 5 5 25 -5 51 -28 23 -20 59 -43 80 -51 213 -79 424 1 504 193 22
51 22 94 2 169 -44 163 -122 261 -469 582 -71 67 -150 149 -175 183 -24 33
-52 61 -60 61 -9 0 -35 -26 -58 -59z"/>
<path d="M1095 9660 c-100 -30 -148 -55 -197 -105 -50 -50 -84 -112 -103 -183
-19 -67 -11 -72 135 -75 l124 -2 11 37 c20 73 107 138 183 138 92 0 174 -63
185 -141 10 -78 -2 -125 -44 -169 -43 -44 -85 -59 -179 -61 -100 -3 -100 -3
-100 -118 0 -81 3 -100 16 -105 9 -3 53 -6 99 -6 180 0 266 -88 237 -243 -18
-90 -88 -137 -204 -137 -68 0 -115 15 -151 49 -29 26 -67 97 -67 124 0 8 -6
17 -13 20 -13 5 -228 -19 -255 -28 -24 -9 -1 -94 54 -197 18 -33 105 -112 147
-133 91 -46 137 -55 288 -55 195 0 273 23 372 110 130 115 157 335 57 473 -37
53 -115 104 -169 113 -47 8 -73 30 -50 45 8 5 22 9 31 9 45 0 136 72 172 135
70 122 51 291 -46 396 -43 47 -126 92 -209 113 -88 22 -245 20 -324 -4z"/>
<path d="M3695 6373 c-11 -21 -60 -92 -110 -158 -94 -126 -412 -455 -612 -635
-400 -357 -674 -626 -849 -831 -175 -207 -324 -473 -378 -674 -56 -212 -36
-466 50 -638 141 -283 409 -467 760 -521 171 -27 318 -17 484 30 165 48 340
152 443 264 52 57 73 64 62 23 -4 -16 -11 -55 -16 -88 -17 -125 -59 -330 -91
-445 -11 -41 -24 -88 -28 -105 -12 -43 -36 -112 -60 -175 -12 -30 -25 -68 -30
-83 -12 -38 -119 -248 -136 -268 -8 -8 -14 -19 -14 -23 0 -14 -118 -162 -157
-196 -105 -93 -195 -150 -235 -150 -9 0 -29 -10 -43 -22 l-26 -23 1010 0 c556
0 1011 3 1011 7 0 11 -43 38 -61 38 -9 0 -36 11 -60 25 -24 13 -55 29 -68 35
-14 6 -68 55 -121 108 -172 173 -293 408 -393 762 -50 176 -67 248 -91 382 -9
49 -23 126 -32 173 -9 47 -13 89 -9 93 4 4 23 -11 43 -33 80 -88 221 -195 312
-237 253 -118 535 -139 810 -62 114 32 197 75 320 163 187 135 298 306 346
531 31 146 8 375 -52 518 -8 18 -14 37 -14 43 0 19 -91 202 -142 283 -163 263
-437 557 -954 1021 -412 371 -692 672 -809 873 -11 17 -24 32 -30 32 -6 0 -19
-17 -30 -37z"/>
</g>
</svg>
